<?xml version="1.0" standalone="no"?>
<!DOCTYPE svg PUBLIC "-//W3C//DTD SVG 20010904//EN"
 "http://www.w3.org/TR/2001/REC-SVG-20010904/DTD/svg10.dtd">
<svg version="1.0" xmlns="http://www.w3.org/2000/svg"
 width="225.000000pt" height="225.000000pt" viewBox="0 0 225.000000 225.000000"
 preserveAspectRatio="xMidYMid meet">

<g transform="translate(0.000000,225.000000) scale(0.100000,-0.100000)"
fill="#000000" stroke="none">
<path d="M1168 2084 l-3 -166 28 6 c20 4 27 2 24 -7 -2 -7 -16 -11 -30 -9 -15
2 -27 -1 -27 -7 0 -6 10 -12 23 -12 17 -1 16 -3 -8 -8 l-30 -7 40 -11 c76 -21
169 -31 185 -20 12 9 13 8 3 -2 -10 -11 -4 -18 30 -35 132 -65 231 -274 189
-398 -18 -55 -11 -103 27 -179 44 -88 40 -111 -19 -115 -63 -3 -84 -6 -73 -10
7 -3 9 -13 6 -21 -4 -11 1 -9 15 5 12 12 29 22 38 22 14 0 14 -1 0 -16 -9 -8
-16 -29 -16 -46 0 -18 -8 -37 -17 -44 -11 -8 -13 -13 -5 -14 19 0 14 -35 -8
-55 -16 -14 -23 -16 -32 -7 -7 7 -23 12 -37 11 -24 0 -23 -1 7 -13 18 -6 30
-15 25 -20 -4 -4 -2 -6 6 -4 24 6 24 -64 1 -90 -12 -12 -26 -22 -33 -23 -37
-3 -74 5 -91 19 -11 10 -16 11 -12 5 9 -17 9 -17 -58 7 -31 10 -63 17 -70 14
-18 -7 -25 5 -28 45 -2 25 -7 31 -24 31 -21 0 -22 -4 -21 -92 l2 -93 30 2 c17
0 24 -1 17 -4 -10 -4 -6 -9 10 -17 16 -8 24 -22 26 -44 2 -20 7 -30 14 -26 7
4 8 2 4 -4 -4 -6 -14 -8 -22 -5 -14 5 -15 3 -5 -15 14 -25 41 -29 41 -6 0 12
9 14 38 12 54 -4 51 -32 -5 -36 -41 -3 -48 -10 -45 -43 2 -11 -57 -2 -74 12
-12 9 -15 10 -10 2 5 -10 -3 -13 -28 -13 -20 0 -39 1 -43 3 -5 1 -8 29 -7 62
1 33 -3 63 -9 66 -5 4 -5 14 2 27 8 16 7 21 -5 26 -9 3 -17 6 -19 6 -1 0 1
-17 6 -37 4 -21 8 -39 9 -40 0 -2 1 -6 2 -10 1 -5 2 -33 2 -63 l1 -55 35 -1
c29 0 35 -4 34 -22 0 -11 3 -19 7 -16 4 2 9 1 12 -3 2 -5 2 -2 1 5 -2 6 2 12
8 12 7 0 7 4 -1 14 -8 10 -9 16 -1 21 6 4 9 1 8 -7 -2 -8 6 -13 19 -13 11 0
25 -4 30 -9 4 -5 3 -6 -4 -3 -28 17 -53 -18 -28 -40 4 -4 5 -2 1 5 -9 15 10
16 19 2 5 -8 11 -7 21 1 12 9 14 6 13 -22 0 -19 -3 -28 -6 -21 -3 9 -9 10 -18
2 -8 -7 -21 -7 -39 0 -14 5 -26 6 -27 2 -1 -4 -5 4 -9 18 -8 23 -8 23 -7 -7 1
-27 5 -31 28 -31 32 1 49 -8 49 -28 0 -14 -4 -15 -45 -18 -27 -1 -62 -23 -52
-32 4 -4 17 1 29 12 23 19 23 19 6 -2 -16 -18 -18 -43 -18 -182 l0 -162 540 0
540 0 0 1125 0 1125 -540 0 -539 0 -3 -166z m45 -1236 c3 -21 2 -38 -3 -38 -4
0 -10 20 -12 45 -4 52 7 47 15 -7z m442 -87 c3 -5 1 -12 -5 -16 -5 -3 -10 1
-10 9 0 18 6 21 15 7z m22 -23 c-3 -8 -6 -5 -6 6 -1 11 2 17 5 13 3 -3 4 -12
1 -19z m-217 -47 c0 -11 -4 -23 -10 -26 -11 -7 -13 -54 -4 -79 17 -44 54 19
54 93 0 31 1 31 49 31 l49 0 21 -70 c12 -38 26 -70 31 -70 6 0 10 -7 10 -15 0
-12 -13 -15 -55 -15 -41 0 -55 4 -55 14 0 8 6 17 13 19 6 3 2 6 -10 6 -16 1
-20 -3 -16 -19 5 -19 0 -20 -81 -20 -70 0 -86 3 -86 15 0 8 5 15 10 15 6 0 10
23 10 50 0 28 -4 50 -10 50 -5 0 -10 9 -10 20 0 17 7 20 45 20 38 0 45 -3 45
-19z m250 15 c0 -3 -4 -8 -10 -11 -5 -3 -10 -1 -10 4 0 6 5 11 10 11 6 0 10
-2 10 -4z m35 -26 c3 -5 1 -10 -4 -10 -6 0 -11 5 -11 10 0 6 2 10 4 10 3 0 8
-4 11 -10z m-427 -220 c2 -21 -2 -30 -13 -30 -18 0 -21 46 -2 53 6 3 12 6 12
6 1 1 2 -12 3 -29z m47 20 c-3 -5 -1 -10 4 -10 17 0 13 -30 -5 -37 -25 -9 -36
10 -18 35 15 22 31 32 19 12z m53 -25 c-1 -14 -8 -25 -15 -25 -7 0 -13 11 -13
25 0 15 6 25 15 25 10 0 14 -9 13 -25z m53 -3 c0 -12 3 -10 10 6 10 26 29 21
29 -9 0 -15 -7 -19 -35 -19 -27 0 -35 4 -35 18 0 35 29 39 31 4z m69 8 c-9 -6
-9 -9 1 -12 8 -3 11 -9 6 -13 -4 -5 -12 -4 -18 2 -14 14 -3 47 12 37 8 -5 8
-9 -1 -14z m248 -5 c-3 -29 -18 -34 -18 -7 0 17 8 32 17 32 1 0 2 -11 1 -25z
m-158 -5 c0 -15 -6 -19 -25 -18 -14 1 -25 7 -25 13 0 5 -5 3 -10 -5 -8 -12
-10 -11 -10 5 0 17 7 21 35 23 29 2 35 -1 35 -18z m40 2 c0 -10 -7 -19 -15
-19 -8 0 -15 9 -15 19 0 10 7 18 15 18 8 0 15 -8 15 -18z m31 11 c-11 -4 -11
-7 0 -14 7 -4 10 -11 7 -14 -10 -10 -28 4 -28 21 0 8 8 14 18 13 12 0 13 -2 3
-6z m59 -15 c0 -16 -3 -18 -14 -9 -11 9 -15 9 -19 -1 -3 -7 -6 -4 -6 7 -1 14
6 21 19 22 14 1 20 -4 20 -19z m90 1 c0 -24 -23 -21 -28 4 -2 10 3 17 12 17
10 0 16 -9 16 -21z m32 12 c7 11 8 9 6 -6 -4 -24 -22 -23 -25 2 -2 11 0 13 3
4 5 -11 8 -11 16 0z m48 -11 c0 -13 -5 -18 -15 -14 -8 4 -15 12 -15 20 0 8 7
14 15 14 8 0 15 -9 15 -20z m-657 -57 c-3 -10 -10 -23 -14 -29 -5 -6 -5 -15
-1 -19 4 -5 1 -5 -5 -1 -7 4 -13 2 -13 -3 0 -17 -17 -13 -24 6 -4 10 -4 14 0
11 13 -14 46 13 41 33 -3 12 0 19 9 19 8 0 11 -6 7 -17z m24 -20 c-3 -10 -5
-4 -5 12 0 17 2 24 5 18 2 -7 2 -21 0 -30z m63 16 c0 -18 -2 -19 -15 -9 -10 9
-15 9 -15 1 0 -6 -4 -11 -10 -11 -5 0 -10 9 -10 20 0 15 7 20 25 20 19 0 25
-5 25 -21z m40 1 c0 -11 -7 -20 -15 -20 -8 0 -15 9 -15 20 0 11 7 20 15 20 8
0 15 -9 15 -20z m17 -12 c-3 -7 -5 -2 -5 12 0 14 2 19 5 13 2 -7 2 -19 0 -25z
m40 12 c-1 -11 -7 -20 -14 -20 -7 0 -13 9 -13 20 0 11 6 20 14 20 9 0 14 -9
13 -20z m43 3 c0 23 16 22 23 -2 3 -14 -2 -18 -24 -19 -23 0 -29 4 -29 21 0
20 0 20 15 1 13 -17 14 -17 15 -1z m64 3 c-3 -8 2 -16 13 -19 12 -3 9 -5 -9
-6 -22 -1 -28 4 -28 19 0 11 7 20 15 20 8 0 12 -6 9 -14z"/>
<path d="M1540 630 c0 -5 5 -10 10 -10 6 0 10 5 10 10 0 6 -4 10 -10 10 -5 0
-10 -4 -10 -10z"/>
<path d="M1220 1799 c0 -5 5 -7 10 -4 6 3 10 8 10 11 0 2 -4 4 -10 4 -5 0 -10
-5 -10 -11z"/>
<path d="M1275 1790 c3 -5 8 -10 11 -10 2 0 4 5 4 10 0 6 -5 10 -11 10 -5 0
-7 -4 -4 -10z"/>
<path d="M1136 1779 c2 -4 13 -7 24 -6 23 2 17 10 -10 12 -10 1 -17 -2 -14 -6z"/>
<path d="M1073 1773 c9 -2 25 -2 35 0 9 3 1 5 -18 5 -19 0 -27 -2 -17 -5z"/>
<path d="M1212 1771 c-11 -6 -9 -9 6 -13 15 -4 19 -2 15 8 -6 16 -4 16 -21 5z"/>
<path d="M1260 1755 c-7 -9 -8 -15 -2 -15 5 0 12 7 16 15 3 8 4 15 2 15 -2 0
-9 -7 -16 -15z"/>
<path d="M1080 1750 c0 -5 4 -10 9 -10 6 0 13 5 16 10 3 6 -1 10 -9 10 -9 0
-16 -4 -16 -10z"/>
<path d="M1128 1753 c6 -2 10 -9 6 -14 -3 -5 2 -9 10 -9 9 0 16 7 16 15 0 9
-9 15 -22 14 -13 0 -17 -3 -10 -6z"/>
<path d="M1110 1715 c0 -9 -6 -12 -17 -8 -11 4 -14 3 -9 -5 12 -19 36 -14 36
8 0 11 -2 20 -5 20 -3 0 -5 -7 -5 -15z"/>
<path d="M1028 1653 c7 -3 16 -2 19 1 4 3 -2 6 -13 5 -11 0 -14 -3 -6 -6z"/>
<path d="M1178 1594 c5 -27 26 -38 41 -21 7 9 2 17 -18 28 -27 16 -28 16 -23
-7z"/>
<path d="M1231 1607 c2 -1 13 -9 24 -17 19 -14 19 -14 6 3 -7 9 -18 17 -24 17
-6 0 -8 -1 -6 -3z"/>
<path d="M1048 1588 c-7 -3 -16 -4 -22 -1 -5 3 -6 1 -2 -5 7 -11 -6 -17 -27
-13 -5 1 -6 -3 -3 -8 3 -5 -1 -14 -8 -21 -14 -11 -32 -66 -28 -82 1 -5 -3 -8
-9 -8 -8 0 -7 -5 1 -15 7 -9 10 -18 6 -22 -3 -3 -6 -1 -6 6 0 7 -4 9 -10 6 -5
-3 -10 -11 -10 -16 0 -6 4 -8 9 -5 11 7 43 -28 34 -37 -3 -4 1 -7 11 -7 9 0
14 -5 11 -10 -3 -6 2 -13 12 -17 10 -4 21 -10 24 -15 3 -5 21 -10 40 -11 19
-1 37 -6 40 -10 3 -5 13 -1 22 8 9 9 21 14 25 11 5 -3 20 6 34 19 14 13 29 21
34 17 4 -4 4 1 1 11 -4 9 -2 17 4 17 6 0 7 5 4 10 -3 6 -2 10 3 10 10 0 9 68
-1 109 -4 14 -2 30 4 37 14 17 -8 29 -25 14 -11 -8 -20 -5 -41 14 -22 20 -37
25 -72 24 -24 -2 -49 -6 -55 -10z m109 -26 c26 -14 53 -46 57 -68 2 -11 5 -23
6 -29 14 -63 -38 -130 -106 -141 -34 -5 -50 -2 -72 12 -52 34 -77 69 -76 106
1 44 36 103 67 113 12 5 31 11 42 15 24 9 56 6 82 -8z"/>
<path d="M1075 1540 c-4 -6 -11 -7 -17 -4 -7 5 -8 2 -3 -6 6 -10 4 -12 -8 -7
-13 5 -17 1 -17 -14 0 -11 -4 -17 -10 -14 -5 3 -12 -4 -14 -17 -7 -35 -4 -58
7 -51 5 3 7 0 5 -8 -8 -22 10 -49 29 -42 10 4 14 2 10 -4 -16 -26 59 -31 80
-5 8 9 11 11 8 4 -6 -11 -3 -11 13 -1 12 7 18 17 16 21 -3 4 0 8 6 8 7 0 9 8
5 21 -5 15 -4 19 4 15 20 -13 12 30 -12 65 -19 27 -29 33 -53 31 -22 -2 -26 0
-14 8 12 8 11 10 -7 10 -12 0 -25 -5 -28 -10z m74 -46 c26 -34 27 -68 1 -94
-24 -24 -82 -27 -100 -5 -7 8 -16 13 -19 10 -17 -10 8 89 25 102 30 22 70 16
93 -13z"/>
<path d="M1261 1520 c0 -8 4 -22 9 -30 12 -18 12 -2 0 25 -6 13 -9 15 -9 5z"/>
<path d="M1301 1494 c0 -11 3 -14 6 -6 3 7 2 16 -1 19 -3 4 -6 -2 -5 -13z"/>
<path d="M1572 1470 c0 -19 2 -27 5 -17 2 9 2 25 0 35 -3 9 -5 1 -5 -18z"/>
<path d="M1365 1467 c-4 -10 -5 -21 -1 -24 10 -10 18 4 13 24 -4 17 -4 17 -12
0z"/>
<path d="M1525 1461 c-3 -12 -11 -21 -17 -21 -6 0 -4 -8 5 -18 26 -28 20 -35
-12 -16 -18 11 -35 14 -47 9 -17 -7 -16 -8 6 -15 25 -6 24 -7 -7 -14 -18 -4
-38 -5 -45 -1 -7 3 -3 -2 10 -11 24 -18 29 -40 10 -47 -7 -3 -3 -6 10 -6 15
-1 22 5 22 18 0 11 4 22 8 25 4 2 6 -11 4 -31 -3 -25 -1 -34 7 -29 6 4 11 18
11 32 0 28 17 33 22 7 3 -12 9 -4 16 21 8 28 8 43 1 52 -7 9 -7 19 1 34 6 12
9 24 7 27 -3 2 -8 -5 -12 -16z"/>
<path d="M1275 1456 c-6 -6 -8 -22 -5 -36 6 -23 7 -22 12 10 7 41 6 42 -7 26z"/>
<path d="M1297 1390 c-4 -16 -5 -35 -3 -42 1 -7 1 -10 -1 -6 -9 15 -96 -87
-99 -115 -1 -16 -5 -35 -8 -43 -3 -8 -2 -12 4 -9 5 3 14 -4 20 -15 11 -20 10
-21 -10 -10 -13 7 -20 8 -16 2 3 -6 0 -17 -8 -24 -9 -10 -11 -20 -4 -31 5 -9
8 -23 7 -29 -3 -20 12 -48 26 -48 8 0 21 7 30 16 15 15 15 18 -1 36 -17 18
-18 18 -29 -9 -7 -18 -14 -23 -19 -15 -4 7 -2 12 3 12 13 0 10 22 -3 32 -6 4
3 10 19 14 39 10 59 -17 50 -69 -3 -25 -2 -36 5 -32 5 3 10 13 10 20 0 9 6 12
17 8 12 -5 14 -3 8 7 -5 8 -1 18 11 27 17 12 17 14 2 30 -13 13 -20 14 -31 4
-12 -9 -15 -7 -19 13 -4 21 -1 24 23 22 20 -2 30 4 38 21 9 20 14 22 33 13 21
-10 22 -10 5 4 -11 9 -17 24 -15 39 1 14 -5 34 -16 46 -22 24 -15 27 17 7 12
-8 38 -17 57 -20 l35 -6 -40 15 c-41 15 -85 59 -85 84 0 11 5 9 22 -5 19 -17
21 -17 15 -1 -9 24 18 22 36 -4 9 -12 18 -16 21 -10 4 5 1 13 -5 16 -5 4 -8
12 -6 19 3 9 -4 11 -25 8 -21 -3 -29 -1 -24 7 9 15 -7 14 -22 -1 -8 -8 -12 -8
-12 -1 0 14 26 24 45 17 8 -4 15 -1 15 5 0 6 15 15 33 21 l32 10 -38 -6 c-21
-3 -46 -8 -54 -11 -11 -4 -14 -2 -9 5 5 8 0 12 -12 12 -14 0 -21 -9 -25 -30z
m-2 -126 c27 -11 38 -53 20 -80 -26 -41 -86 -26 -98 24 -4 16 2 28 20 42 28
22 33 23 58 14z m-90 -145 c-10 -15 -25 -10 -19 6 4 8 10 12 15 9 5 -3 7 -10
4 -15z m22 -74 c-4 -8 -11 -15 -17 -15 -6 0 -6 7 2 20 14 22 24 19 15 -5z"/>
<path d="M1260 1213 c0 -7 7 -13 15 -13 8 0 15 6 15 13 0 8 -7 14 -15 14 -8 0
-15 -6 -15 -14z"/>
<path d="M1245 1357 c-11 -17 -35 -42 -54 -54 -19 -13 -29 -23 -23 -23 6 0 27
14 46 31 19 16 38 31 42 32 6 2 17 48 11 47 -1 -1 -11 -15 -22 -33z"/>
<path d="M720 1290 c0 -5 5 -10 10 -10 6 0 10 5 10 10 0 6 -4 10 -10 10 -5 0
-10 -4 -10 -10z"/>
<path d="M800 1270 c0 -5 5 -10 10 -10 6 0 10 5 10 10 0 6 -4 10 -10 10 -5 0
-10 -4 -10 -10z"/>
<path d="M1146 1241 c-4 -5 3 -7 14 -4 23 6 26 13 6 13 -8 0 -17 -4 -20 -9z"/>
<path d="M1065 1230 c-13 -6 -15 -9 -5 -9 8 0 22 4 30 9 18 12 2 12 -25 0z"/>
<path d="M1153 1223 c-19 -7 -16 -43 3 -43 14 0 15 2 3 17 -12 14 -12 16 0 8
9 -5 12 -4 7 3 -3 5 0 13 6 15 7 3 9 5 3 5 -5 0 -16 -2 -22 -5z"/>
<path d="M1471 1214 c0 -11 3 -14 6 -6 3 7 2 16 -1 19 -3 4 -6 -2 -5 -13z"/>
<path d="M978 1213 c7 -3 16 -2 19 1 4 3 -2 6 -13 5 -11 0 -14 -3 -6 -6z"/>
<path d="M1065 1150 c4 -6 22 -9 40 -8 42 3 37 10 -11 15 -23 2 -33 0 -29 -7z"/>
<path d="M1455 1115 c6 -32 41 -69 56 -59 5 3 -2 15 -16 26 -15 11 -31 30 -36
42 -8 17 -8 15 -4 -9z"/>
<path d="M1125 1110 c2 -27 10 -33 12 -10 1 11 -2 22 -6 24 -4 3 -7 -4 -6 -14z"/>
<path d="M1436 1039 c21 -23 23 -23 20 -2 -2 9 -11 17 -20 19 -17 2 -17 2 0
-17z"/>
<path d="M1150 1032 c0 -6 -8 -13 -17 -15 -16 -4 -16 -5 -1 -6 18 -1 34 16 24
26 -3 4 -6 1 -6 -5z"/>
<path d="M1370 1021 c0 -6 4 -13 10 -16 6 -3 7 1 4 9 -7 18 -14 21 -14 7z"/>
<path d="M1208 999 c-15 -4 -30 -4 -33 0 -4 3 -5 -7 -3 -24 3 -29 7 -31 48
-26 6 0 10 5 10 10 0 4 -11 7 -26 5 -21 -2 -23 0 -12 13 7 9 14 11 16 5 2 -6
10 -8 18 -5 9 3 14 -2 15 -13 0 -11 2 -35 2 -54 1 -19 6 -33 10 -30 5 3 13 -3
18 -12 13 -24 25 -23 25 2 0 11 -9 23 -20 26 -18 6 -18 7 -1 16 12 7 20 7 25
-2 8 -13 30 -5 30 11 0 6 -4 8 -9 5 -5 -3 -14 1 -21 9 -10 12 -10 18 -1 29 14
17 -2 32 -21 20 -7 -5 -8 -3 -3 6 6 10 4 12 -10 6 -10 -4 -21 -3 -24 2 -3 5
-18 5 -33 1z"/>
<path d="M1475 1003 c-11 -3 -26 -10 -32 -15 -9 -7 -13 -7 -13 1 0 6 -7 11
-17 11 -9 0 -13 -3 -10 -7 4 -3 2 -12 -3 -18 -8 -9 -2 -12 22 -11 17 1 33 7
36 14 2 6 10 12 17 12 8 0 17 5 20 10 3 6 5 9 3 9 -2 -1 -12 -4 -23 -6z"/>
<path d="M1088 993 c6 -2 18 -2 25 0 6 3 1 5 -13 5 -14 0 -19 -2 -12 -5z"/>
<path d="M1135 990 c3 -5 1 -10 -4 -10 -6 0 -11 -7 -11 -15 0 -8 6 -15 14 -15
8 0 14 10 14 25 0 14 -5 25 -10 25 -5 0 -6 -4 -3 -10z"/>
<path d="M1320 976 c0 -3 15 -15 33 -27 23 -17 28 -18 18 -6 -14 18 -51 42
-51 33z"/>
<path d="M1410 930 c-12 -7 -10 -9 7 -7 12 0 19 5 17 9 -6 10 -6 10 -24 -2z"/>
<path d="M1183 923 c9 -2 25 -2 35 0 9 3 1 5 -18 5 -19 0 -27 -2 -17 -5z"/>
<path d="M1128 893 c7 -3 16 -2 19 1 4 3 -2 6 -13 5 -11 0 -14 -3 -6 -6z"/>
<path d="M1364 876 c11 -9 24 -16 30 -16 12 0 7 5 -24 19 -24 11 -24 11 -6 -3z"/>
<path d="M1330 843 c-24 -12 -24 -13 15 -13 22 0 36 4 30 8 -5 4 -12 10 -15
13 -3 3 -16 0 -30 -8z"/>
<path d="M1400 821 c0 -6 4 -13 10 -16 6 -3 7 1 4 9 -7 18 -14 21 -14 7z"/>
<path d="M1180 655 c0 -8 4 -15 8 -15 5 0 9 7 9 15 0 8 -4 15 -9 15 -4 0 -8
-7 -8 -15z"/>
<path d="M1181 584 c0 -11 3 -14 6 -6 3 7 2 16 -1 19 -3 4 -6 -2 -5 -13z"/>
<path d="M1025 532 c8 -9 65 -12 65 -4 0 4 -16 7 -35 8 -19 0 -33 -2 -30 -4z"/>
<path d="M1044 502 c3 -6 -2 -13 -11 -15 -16 -4 -16 -5 -1 -6 21 -1 32 15 17
25 -7 4 -9 3 -5 -4z"/>
<path d="M1110 492 c11 -22 31 -22 29 1 0 8 -2 8 -6 -1 -4 -10 -9 -9 -20 5
-13 17 -13 16 -3 -5z"/>
<path d="M1080 415 c-8 -9 -4 -11 15 -7 14 2 25 8 25 11 0 12 -29 9 -40 -4z"/>
<path d="M1145 420 c3 -5 8 -10 11 -10 2 0 4 5 4 10 0 6 -5 10 -11 10 -5 0 -7
-4 -4 -10z"/>
<path d="M1155 390 c-3 -5 -3 -11 2 -11 4 -1 -5 -5 -22 -9 l-30 -8 32 -1 c26
-1 31 3 30 19 -1 23 -3 24 -12 10z"/>
<path d="M1087 342 c-3 -4 8 -7 23 -7 16 -1 26 3 24 7 -7 10 -41 10 -47 0z"/>
</g>
</svg>
